# Blender v2.78 (sub 0) OBJ File: ''
# www.blender.org
mtllib player.mtl
o cube
v 0.087550 -1.561482 -0.072356
v -0.087770 -1.561572 -0.072956
v -0.147860 -0.354462 -0.237346
v 0.147820 -0.355172 -0.237246
v 0.910120 1.065338 -0.049125
v 0.546070 0.703198 -0.176885
v 0.546070 1.065338 0.001105
v 0.910120 1.065338 0.001105
v -0.546070 0.703198 -0.176885
v -0.910120 1.065338 -0.049125
v -0.910120 1.065338 0.001105
v -0.546070 1.065338 0.001105
v 1.185030 0.528048 0.232555
v 1.185030 0.662728 0.232555
v 1.638220 0.873878 0.248495
v -1.638220 0.873878 0.248495
v -1.185030 0.679408 0.232555
v -1.185030 0.528048 0.232555
v -0.907540 0.429308 -0.049125
v -1.185030 0.528048 0.232555
v -1.185030 0.679408 0.232555
v -0.908250 0.602688 -0.049125
v -0.546070 0.414778 -0.176885
v -0.907540 0.429308 -0.049125
v -0.908250 0.602688 -0.049125
v -0.546070 0.602698 -0.176885
v -0.147860 -0.354462 -0.237346
v -0.546070 0.414778 -0.176885
v -0.546070 0.602698 -0.176885
v -0.170530 0.099368 -0.299375
v 0.546070 0.414778 -0.176885
v 0.147820 -0.355172 -0.237246
v 0.166870 0.099378 -0.298465
v 0.546070 0.591628 -0.176885
v 0.907540 0.429278 -0.049125
v 0.546070 0.414778 -0.176885
v 0.546070 0.591628 -0.176885
v 0.908210 0.592698 -0.049125
v 1.185030 0.528048 0.232555
v 0.907540 0.429278 -0.049125
v 0.908210 0.592698 -0.049125
v 1.185030 0.662728 0.232555
v -0.170530 0.099368 -0.299375
v 0.166870 0.099378 -0.298465
v 0.147820 -0.355172 -0.237246
v -0.147860 -0.354462 -0.237346
v 1.185030 0.528048 0.263365
v 1.185030 0.528048 0.232555
v 1.638220 0.873878 0.248495
v 1.638220 0.873878 0.263365
v 1.638220 1.065338 0.263365
v 1.185030 1.065338 0.263365
v 1.185030 0.528048 0.263365
v 1.638220 0.873878 0.263365
v 1.638220 0.873878 0.248495
v 1.638220 1.065338 0.248495
v 1.638220 1.065338 0.263365
v 1.638220 0.873878 0.263365
v 0.905150 -0.161592 0.001105
v 0.905150 -0.161592 -0.049125
v 1.185030 0.528048 0.232555
v 1.185030 0.528048 0.263365
v 1.185030 1.065338 0.263365
v 0.910120 1.065338 0.001105
v 0.905150 -0.161592 0.001105
v 1.185030 0.528048 0.263365
v 0.546070 0.414778 0.001105
v 0.546070 0.414778 -0.176885
v 0.905150 -0.161592 -0.049125
v 0.905150 -0.161592 0.001105
v 0.910120 1.065338 0.001105
v 0.546070 1.065338 0.001105
v 0.546070 0.414778 0.001105
v 0.905150 -0.161592 0.001105
v 0.068930 -1.934212 0.001104
v 0.068930 -1.934212 -0.021406
v 0.546070 0.414778 -0.176885
v 0.546070 0.414778 0.001105
v 0.546070 1.065338 0.001105
v 0.182020 0.798118 0.001105
v 0.068930 -1.934212 0.001104
v 0.546070 0.414778 0.001105
v -0.068930 -1.934212 0.001104
v -0.068930 -1.934212 -0.021406
v 0.068930 -1.934212 -0.021406
v 0.068930 -1.934212 0.001104
v 0.182020 0.798118 0.001105
v -0.182020 0.798118 0.001105
v -0.068930 -1.934212 0.001104
v 0.068930 -1.934212 0.001104
v -0.546070 0.414778 0.001105
v -0.546070 0.414778 -0.176885
v -0.068930 -1.934212 -0.021406
v -0.068930 -1.934212 0.001104
v -0.182020 0.798118 0.001105
v -0.546070 1.065338 0.001105
v -0.546070 0.414778 0.001105
v -0.068930 -1.934212 0.001104
v -0.905150 -0.161592 0.001105
v -0.905150 -0.161592 -0.049125
v -0.546070 0.414778 -0.176885
v -0.546070 0.414778 0.001105
v -0.546070 1.065338 0.001105
v -0.910120 1.065338 0.001105
v -0.905150 -0.161592 0.001105
v -0.546070 0.414778 0.001105
v -1.185030 0.528048 0.263365
v -1.185030 0.528048 0.232555
v -0.905150 -0.161592 -0.049125
v -0.905150 -0.161592 0.001105
v -0.910120 1.065338 0.001105
v -1.185030 1.065338 0.263365
v -1.185030 0.528048 0.263365
v -0.905150 -0.161592 0.001105
v -1.638220 0.873878 0.263365
v -1.638220 0.873878 0.248495
v -1.185030 0.528048 0.232555
v -1.185030 0.528048 0.263365
v -1.185030 1.065338 0.263365
v -1.638220 1.065338 0.263365
v -1.638220 0.873878 0.263365
v -1.185030 0.528048 0.263365
v -1.638220 1.065338 0.263365
v -1.638220 1.065338 0.248495
v -1.638220 0.873878 0.248495
v -1.638220 0.873878 0.263365
v 0.905150 -0.161592 -0.049125
v 0.907540 0.429278 -0.049125
v 1.185030 0.528048 0.232555
v 0.546070 0.414778 -0.176885
v 0.907540 0.429278 -0.049125
v 0.905150 -0.161592 -0.049125
v 0.068930 -1.934212 -0.021406
v 0.087550 -1.561482 -0.072356
v 0.147820 -0.355172 -0.237246
v 0.546070 0.414778 -0.176885
v -0.068930 -1.934212 -0.021406
v -0.087770 -1.561572 -0.072956
v 0.087550 -1.561482 -0.072356
v 0.068930 -1.934212 -0.021406
v -0.546070 0.414778 -0.176885
v -0.147860 -0.354462 -0.237346
v -0.087770 -1.561572 -0.072956
v -0.068930 -1.934212 -0.021406
v -0.905150 -0.161592 -0.049125
v -0.907540 0.429308 -0.049125
v -0.546070 0.414778 -0.176885
v -1.185030 0.528048 0.232555
v -0.907540 0.429308 -0.049125
v -0.905150 -0.161592 -0.049125
v 1.638220 1.065338 0.248495
v 1.185030 1.065338 0.232555
v 1.185030 1.065338 0.263365
v 1.638220 1.065338 0.263365
v 1.185030 1.065338 0.232555
v 0.910120 1.065338 -0.049125
v 0.910120 1.065338 0.001105
v 1.185030 1.065338 0.263365
v 0.546070 0.703198 -0.176885
v 0.182020 0.329358 -0.330815
v 0.182020 0.798118 0.001105
v 0.546070 1.065338 0.001105
v 0.182020 0.329358 -0.330815
v -0.182020 0.329358 -0.330815
v -0.182020 0.798118 0.001105
v 0.182020 0.798118 0.001105
v -0.182020 0.329358 -0.330815
v -0.546070 0.703198 -0.176885
v -0.546070 1.065338 0.001105
v -0.182020 0.798118 0.001105
v -0.910120 1.065338 -0.049125
v -1.185030 1.065338 0.232555
v -1.185030 1.065338 0.263365
v -0.910120 1.065338 0.001105
v -1.185030 1.065338 0.232555
v -1.638220 1.065338 0.248495
v -1.638220 1.065338 0.263365
v -1.185030 1.065338 0.263365
v 0.166870 0.099378 -0.298465
v -0.170530 0.099368 -0.299375
v -0.182020 0.329358 -0.330815
v 0.182020 0.329358 -0.330815
v 1.638220 0.873878 0.248495
v 1.185030 0.662728 0.232555
v 1.185030 1.065338 0.232555
v 1.638220 1.065338 0.248495
v 1.185030 0.662728 0.232555
v 0.908210 0.592698 -0.049125
v 0.910120 1.065338 -0.049125
v 1.185030 1.065338 0.232555
v 0.908210 0.592698 -0.049125
v 0.546070 0.591628 -0.176885
v 0.546070 0.703198 -0.176885
v 0.910120 1.065338 -0.049125
v 0.546070 0.591628 -0.176885
v 0.166870 0.099378 -0.298465
v 0.182020 0.329358 -0.330815
v 0.546070 0.703198 -0.176885
v -0.170530 0.099368 -0.299375
v -0.546070 0.602698 -0.176885
v -0.546070 0.703198 -0.176885
v -0.182020 0.329358 -0.330815
v -0.546070 0.602698 -0.176885
v -0.908250 0.602688 -0.049125
v -0.910120 1.065338 -0.049125
v -0.546070 0.703198 -0.176885
v -0.908250 0.602688 -0.049125
v -1.185030 0.679408 0.232555
v -1.185030 1.065338 0.232555
v -0.910120 1.065338 -0.049125
v -1.185030 0.679408 0.232555
v -1.638220 0.873878 0.248495
v -1.638220 1.065338 0.248495
v -1.185030 1.065338 0.232555
vn 0.7459 -0.2928 -0.5983
vn 0.4032 -0.0008 -0.9151
vn 0.0352 0.0000 -0.9994
vn -0.0352 0.0000 -0.9994
vn -0.4033 -0.0008 -0.9151
vn -0.7459 -0.2928 -0.5983
vn -0.5368 -0.0017 -0.8437
vn -0.4032 -0.0008 -0.9151
vn -0.5371 -0.0013 -0.8435
vn -0.3677 -0.0621 -0.9279
vn -0.5368 -0.0016 -0.8437
vn -0.5371 -0.0012 -0.8435
vn -0.3762 -0.0511 -0.9251
vn -0.2038 -0.1317 -0.9701
vn -0.2132 -0.1214 -0.9694
vn 0.3657 -0.0617 -0.9287
vn 0.2030 -0.1312 -0.9704
vn 0.2127 -0.1219 -0.9695
vn 0.3745 -0.0517 -0.9258
vn 0.5368 -0.0016 -0.8437
vn 0.5371 -0.0012 -0.8435
vn 0.5368 -0.0017 -0.8437
vn 0.5371 -0.0013 -0.8435
vn 0.4032 -0.0009 -0.9151
vn 0.2128 -0.1219 -0.9695
vn 0.2030 -0.1312 -0.9703
vn 0.7947 -0.6070 0.0000
vn 0.7459 -0.2929 -0.5983
vn 0.8963 -0.4435 -0.0000
vn 0.0000 -0.0000 1.0000
vn -0.3705 0.0010 0.9288
vn 0.8963 -0.4435 0.0001
vn 1.0000 0.0000 0.0000
vn 0.9266 -0.3760 0.0000
vn 0.7599 -0.1465 -0.6333
vn -0.3705 0.0011 0.9288
vn -0.8488 -0.5288 0.0000
vn -0.3705 -0.0000 0.9288
vn 0.9800 -0.1991 0.0000
vn 0.0000 -1.0000 0.0000
vn -0.9800 -0.1991 0.0000
vn 0.8488 -0.5288 0.0000
vn 0.3705 0.0011 0.9288
vn -0.7947 -0.6070 0.0000
vn -0.7599 -0.1465 -0.6333
vn -0.9266 -0.3760 0.0000
vn 0.3705 0.0018 0.9288
vn 0.3705 0.0010 0.9288
vn -0.8963 -0.4435 -0.0000
vn -0.7459 -0.2928 -0.5982
vn -1.0000 0.0000 0.0000
vn -0.8963 -0.4435 -0.0001
vn 0.2126 -0.1431 -0.9666
vn 0.1419 -0.1412 -0.9798
vn -0.2116 -0.1432 -0.9668
vn -0.1402 -0.1412 -0.9800
vn 0.1419 -0.1411 -0.9798
vn 0.0000 1.0000 0.0000
vn 0.3043 0.4990 -0.8114
vn -0.0663 0.8745 -0.4805
vn 0.1091 0.2554 -0.9607
vn 0.0501 0.2322 -0.9714
vn -0.1363 0.5461 -0.8265
vn -0.1936 0.5182 -0.8331
vn -0.0495 0.2333 -0.9712
vn 0.1363 0.5461 -0.8265
vn -0.0495 0.2332 -0.9712
vn -0.1092 0.2564 -0.9604
vn 0.1936 0.5182 -0.8331
vn -0.3043 0.4990 -0.8114
vn 0.0663 0.8745 -0.4805
vn 0.4037 0.0000 -0.9149
vn 0.3042 0.4990 -0.8115
vn 0.4037 -0.0009 -0.9149
vn -0.3762 -0.0512 -0.9251
vn -0.3042 0.4990 -0.8115
vn -0.1091 0.2564 -0.9604
vn -0.4037 -0.0015 -0.9149
vn -0.3043 0.4990 -0.8115
vn -0.4037 -0.0009 -0.9149
vn -0.1935 0.5182 -0.8331
vn -0.0663 0.8745 -0.4804
vn 0.0663 0.8745 -0.4804
vn 0.1935 0.5182 -0.8331
usemtl cubePolygon
s 1
f 13//1 14//2 15//3
f 16//4 17//5 18//6
f 19//7 20//6 21//8 22//9
f 23//10 24//11 25//12 26//13
f 27//14 28//10 29//13 30//15
f 31//16 32//17 33//18 34//19
f 35//20 36//16 37//19 38//21
f 39//1 40//22 41//23 42//24
f 43//15 44//25 45//26 46//14
usemtl DefaultLib_Material11
f 47//27 48//28 49//29 50//29
f 51//30 52//31 53//31 54//30
f 55//32 56//33 57//33 58//29
f 59//34 60//35 61//1 62//27
f 63//31 64//36 65//31 66//31
f 67//37 68//37 69//37 70//37
f 71//38 72//30 73//30 74//36
f 75//39 76//39 77//39 78//39
f 79//30 80//30 81//30 82//30
f 83//40 84//40 85//40 86//40
f 87//30 88//30 89//30 90//30
f 91//41 92//41 93//41 94//41
f 95//30 96//30 97//30 98//30
f 99//42 100//42 101//42 102//42
f 103//30 104//43 105//43 106//30
f 107//44 108//6 109//45 110//46
f 111//47 112//48 113//48 114//48
f 115//49 116//49 117//50 118//44
f 119//48 120//30 121//30 122//48
f 123//51 124//51 125//49 126//52
f 127//35 128//22 129//1
f 130//16 131//22 132//35
f 133//53 134//54 135//17 136//16
f 137//55 138//56 139//57 140//53
f 141//10 142//14 143//56 144//55
f 145//45 146//11 147//10
f 148//6 149//11 150//45
f 151//58 152//58 153//58 154//58
f 155//58 156//59 157//60 158//58
f 159//61 160//62 161//63 162//64
f 163//62 164//65 165//66 166//63
f 167//67 168//68 169//69 170//66
f 171//70 172//58 173//58 174//71
f 175//58 176//58 177//58 178//58
f 179//25 180//15 181//67 182//62
f 183//3 184//2 185//72 186//3
f 187//24 188//21 189//73 190//74
f 191//21 192//19 193//61 194//73
f 195//19 196//18 197//62 198//61
f 199//15 200//13 201//68 202//67
f 203//75 204//9 205//76 206//77
f 207//9 208//8 209//78 210//79
f 211//5 212//4 213//4 214//80
usemtl cubePolygon2
f 1//54 2//56 3//14 4//26
usemtl cubePolygon3
f 5//59 6//61 7//81 8//82
f 9//68 10//70 11//83 12//84
