# Blender v2.77 (sub 0) OBJ File: ''
# www.blender.org
mtllib player.mtl
o player_player_cube.000
v -0.087550 -1.561482 0.072356
v 0.087770 -1.561572 0.072956
v 0.147860 -0.354462 0.237346
v -0.147820 -0.355172 0.237246
v -0.910120 1.065338 0.049125
v -0.546070 0.703198 0.176885
v -0.546070 1.065338 -0.001105
v -0.910120 1.065338 -0.001105
v 0.546070 0.703198 0.176885
v 0.910120 1.065338 0.049125
v 0.910120 1.065338 -0.001105
v 0.546070 1.065338 -0.001105
v -1.185030 0.528048 -0.232555
v -1.185030 0.662728 -0.232555
v -1.638220 0.873878 -0.248495
v 1.638220 0.873878 -0.248495
v 1.185030 0.679408 -0.232555
v 1.185030 0.528048 -0.232555
v 0.907540 0.429308 0.049125
v 1.185030 0.528048 -0.232555
v 1.185030 0.679408 -0.232555
v 0.908250 0.602688 0.049125
v 0.546070 0.414778 0.176885
v 0.907540 0.429308 0.049125
v 0.908250 0.602688 0.049125
v 0.546070 0.602698 0.176885
v 0.147860 -0.354462 0.237346
v 0.546070 0.414778 0.176885
v 0.546070 0.602698 0.176885
v 0.170530 0.099368 0.299375
v -0.546070 0.414778 0.176885
v -0.147820 -0.355172 0.237246
v -0.166870 0.099378 0.298465
v -0.546070 0.591628 0.176885
v -0.907540 0.429278 0.049125
v -0.546070 0.414778 0.176885
v -0.546070 0.591628 0.176885
v -0.908210 0.592698 0.049125
v -1.185030 0.528048 -0.232555
v -0.907540 0.429278 0.049125
v -0.908210 0.592698 0.049125
v -1.185030 0.662728 -0.232555
v 0.170530 0.099368 0.299375
v -0.166870 0.099378 0.298465
v -0.147820 -0.355172 0.237246
v 0.147860 -0.354462 0.237346
v -1.185030 0.528048 -0.263365
v -1.185030 0.528048 -0.232555
v -1.638220 0.873878 -0.248495
v -1.638220 0.873878 -0.263365
v -1.638220 1.065338 -0.263365
v -1.185030 1.065338 -0.263365
v -1.185030 0.528048 -0.263365
v -1.638220 0.873878 -0.263365
v -1.638220 0.873878 -0.248495
v -1.638220 1.065338 -0.248495
v -1.638220 1.065338 -0.263365
v -1.638220 0.873878 -0.263365
v -0.905150 -0.161592 -0.001105
v -0.905150 -0.161592 0.049125
v -1.185030 0.528048 -0.232555
v -1.185030 0.528048 -0.263365
v -1.185030 1.065338 -0.263365
v -0.910120 1.065338 -0.001105
v -0.905150 -0.161592 -0.001105
v -1.185030 0.528048 -0.263365
v -0.546070 0.414778 -0.001105
v -0.546070 0.414778 0.176885
v -0.905150 -0.161592 0.049125
v -0.905150 -0.161592 -0.001105
v -0.910120 1.065338 -0.001105
v -0.546070 1.065338 -0.001105
v -0.546070 0.414778 -0.001105
v -0.905150 -0.161592 -0.001105
v -0.068930 -1.934212 -0.001104
v -0.068930 -1.934212 0.021406
v -0.546070 0.414778 0.176885
v -0.546070 0.414778 -0.001105
v -0.546070 1.065338 -0.001105
v -0.182020 0.798118 -0.001105
v -0.068930 -1.934212 -0.001104
v -0.546070 0.414778 -0.001105
v 0.068930 -1.934212 -0.001104
v 0.068930 -1.934212 0.021406
v -0.068930 -1.934212 0.021406
v -0.068930 -1.934212 -0.001104
v -0.182020 0.798118 -0.001105
v 0.182020 0.798118 -0.001105
v 0.068930 -1.934212 -0.001104
v -0.068930 -1.934212 -0.001104
v 0.546070 0.414778 -0.001105
v 0.546070 0.414778 0.176885
v 0.068930 -1.934212 0.021406
v 0.068930 -1.934212 -0.001104
v 0.182020 0.798118 -0.001105
v 0.546070 1.065338 -0.001105
v 0.546070 0.414778 -0.001105
v 0.068930 -1.934212 -0.001104
v 0.905150 -0.161592 -0.001105
v 0.905150 -0.161592 0.049125
v 0.546070 0.414778 0.176885
v 0.546070 0.414778 -0.001105
v 0.546070 1.065338 -0.001105
v 0.910120 1.065338 -0.001105
v 0.905150 -0.161592 -0.001105
v 0.546070 0.414778 -0.001105
v 1.185030 0.528048 -0.263365
v 1.185030 0.528048 -0.232555
v 0.905150 -0.161592 0.049125
v 0.905150 -0.161592 -0.001105
v 0.910120 1.065338 -0.001105
v 1.185030 1.065338 -0.263365
v 1.185030 0.528048 -0.263365
v 0.905150 -0.161592 -0.001105
v 1.638220 0.873878 -0.263365
v 1.638220 0.873878 -0.248495
v 1.185030 0.528048 -0.232555
v 1.185030 0.528048 -0.263365
v 1.185030 1.065338 -0.263365
v 1.638220 1.065338 -0.263365
v 1.638220 0.873878 -0.263365
v 1.185030 0.528048 -0.263365
v 1.638220 1.065338 -0.263365
v 1.638220 1.065338 -0.248495
v 1.638220 0.873878 -0.248495
v 1.638220 0.873878 -0.263365
v -0.905150 -0.161592 0.049125
v -0.907540 0.429278 0.049125
v -1.185030 0.528048 -0.232555
v -0.546070 0.414778 0.176885
v -0.907540 0.429278 0.049125
v -0.905150 -0.161592 0.049125
v -0.068930 -1.934212 0.021406
v -0.087550 -1.561482 0.072356
v -0.147820 -0.355172 0.237246
v -0.546070 0.414778 0.176885
v 0.068930 -1.934212 0.021406
v 0.087770 -1.561572 0.072956
v -0.087550 -1.561482 0.072356
v -0.068930 -1.934212 0.021406
v 0.546070 0.414778 0.176885
v 0.147860 -0.354462 0.237346
v 0.087770 -1.561572 0.072956
v 0.068930 -1.934212 0.021406
v 0.905150 -0.161592 0.049125
v 0.907540 0.429308 0.049125
v 0.546070 0.414778 0.176885
v 1.185030 0.528048 -0.232555
v 0.907540 0.429308 0.049125
v 0.905150 -0.161592 0.049125
v -1.638220 1.065338 -0.248495
v -1.185030 1.065338 -0.232555
v -1.185030 1.065338 -0.263365
v -1.638220 1.065338 -0.263365
v -1.185030 1.065338 -0.232555
v -0.910120 1.065338 0.049125
v -0.910120 1.065338 -0.001105
v -1.185030 1.065338 -0.263365
v -0.546070 0.703198 0.176885
v -0.182020 0.329358 0.330815
v -0.182020 0.798118 -0.001105
v -0.546070 1.065338 -0.001105
v -0.182020 0.329358 0.330815
v 0.182020 0.329358 0.330815
v 0.182020 0.798118 -0.001105
v -0.182020 0.798118 -0.001105
v 0.182020 0.329358 0.330815
v 0.546070 0.703198 0.176885
v 0.546070 1.065338 -0.001105
v 0.182020 0.798118 -0.001105
v 0.910120 1.065338 0.049125
v 1.185030 1.065338 -0.232555
v 1.185030 1.065338 -0.263365
v 0.910120 1.065338 -0.001105
v 1.185030 1.065338 -0.232555
v 1.638220 1.065338 -0.248495
v 1.638220 1.065338 -0.263365
v 1.185030 1.065338 -0.263365
v -0.166870 0.099378 0.298465
v 0.170530 0.099368 0.299375
v 0.182020 0.329358 0.330815
v -0.182020 0.329358 0.330815
v -1.638220 0.873878 -0.248495
v -1.185030 0.662728 -0.232555
v -1.185030 1.065338 -0.232555
v -1.638220 1.065338 -0.248495
v -1.185030 0.662728 -0.232555
v -0.908210 0.592698 0.049125
v -0.910120 1.065338 0.049125
v -1.185030 1.065338 -0.232555
v -0.908210 0.592698 0.049125
v -0.546070 0.591628 0.176885
v -0.546070 0.703198 0.176885
v -0.910120 1.065338 0.049125
v -0.546070 0.591628 0.176885
v -0.166870 0.099378 0.298465
v -0.182020 0.329358 0.330815
v -0.546070 0.703198 0.176885
v 0.170530 0.099368 0.299375
v 0.546070 0.602698 0.176885
v 0.546070 0.703198 0.176885
v 0.182020 0.329358 0.330815
v 0.546070 0.602698 0.176885
v 0.908250 0.602688 0.049125
v 0.910120 1.065338 0.049125
v 0.546070 0.703198 0.176885
v 0.908250 0.602688 0.049125
v 1.185030 0.679408 -0.232555
v 1.185030 1.065338 -0.232555
v 0.910120 1.065338 0.049125
v 1.185030 0.679408 -0.232555
v 1.638220 0.873878 -0.248495
v 1.638220 1.065338 -0.248495
v 1.185030 1.065338 -0.232555
vn -0.141900 -0.141200 0.979800
vn 0.140200 -0.141200 0.980000
vn 0.203800 -0.131700 0.970100
vn -0.203000 -0.131200 0.970300
vn -0.304300 0.499000 0.811400
vn -0.109100 0.255400 0.960700
vn 0.193500 0.518200 0.833100
vn 0.066300 0.874500 0.480400
vn 0.109200 0.256400 0.960400
vn 0.304300 0.499000 0.811400
vn -0.066300 0.874500 0.480400
vn -0.193500 0.518200 0.833100
vn -0.794700 -0.607000 0.000000
vn -0.745900 -0.292900 0.598300
vn -0.896300 -0.443500 0.000000
vn 0.000000 0.000000 -1.000000
vn 0.370500 0.001000 -0.928800
vn -1.000000 -0.000000 0.000000
vn -0.926600 -0.376000 0.000000
vn -0.759900 -0.146500 0.633300
vn -0.745900 -0.292800 0.598300
vn 0.370500 0.001100 -0.928800
vn 0.848800 -0.528800 -0.000000
vn 0.370500 0.000000 -0.928800
vn -0.980000 -0.199100 0.000000
vn 0.000000 -1.000000 0.000000
vn 0.980000 -0.199100 0.000000
vn -0.848800 -0.528800 -0.000000
vn -0.370500 0.001100 -0.928800
vn 0.794700 -0.607000 -0.000000
vn 0.745900 -0.292800 0.598300
vn 0.759900 -0.146500 0.633300
vn 0.926600 -0.376000 0.000000
vn -0.370500 0.001800 -0.928800
vn -0.370500 0.001000 -0.928800
vn 0.896300 -0.443500 0.000000
vn 0.745900 -0.292800 0.598200
vn 1.000000 0.000000 0.000000
vn -0.536800 -0.001700 0.843700
vn -0.365700 -0.061700 0.928700
vn -0.212600 -0.143100 0.966600
vn 0.211600 -0.143200 0.966800
vn -0.141900 -0.141100 0.979800
vn 0.367700 -0.062100 0.927900
vn 0.536800 -0.001600 0.843700
vn 0.000000 1.000000 0.000000
vn 0.066300 0.874500 0.480500
vn -0.050100 0.232200 0.971400
vn 0.136300 0.546100 0.826500
vn 0.193600 0.518200 0.833100
vn 0.049500 0.233300 0.971100
vn -0.136300 0.546100 0.826500
vn 0.049500 0.233200 0.971200
vn -0.193600 0.518200 0.833100
vn -0.066300 0.874500 0.480500
vn -0.212800 -0.121900 0.969500
vn 0.213200 -0.121400 0.969400
vn -0.035200 -0.000000 0.999400
vn -0.403200 -0.000800 0.915100
vn -0.403700 -0.000000 0.914900
vn -0.403200 -0.000900 0.915100
vn -0.537100 -0.001200 0.843500
vn -0.304200 0.499000 0.811500
vn -0.403700 -0.000900 0.914900
vn -0.374500 -0.051700 0.925800
vn -0.212700 -0.121900 0.969500
vn 0.376200 -0.051100 0.925100
vn 0.376200 -0.051200 0.925100
vn 0.537100 -0.001300 0.843500
vn 0.304200 0.499000 0.811500
vn 0.109100 0.256400 0.960400
vn 0.403200 -0.000800 0.915100
vn 0.403700 -0.001500 0.914900
vn 0.304300 0.499000 0.811500
vn 0.403300 -0.000800 0.915100
vn 0.035200 -0.000000 0.999400
vn 0.403700 -0.000900 0.914900
vn 0.536800 -0.001700 0.843700
vn 0.537100 -0.001200 0.843500
vn -0.203000 -0.131200 0.970400
vn -0.536800 -0.001600 0.843700
vn -0.537100 -0.001300 0.843500
usemtl cubePolygon2.002
s 1
f 1//1 2//2 3//3 4//4
usemtl cubePolygon3.002
f 5//5 6//6 7//7 8//8
f 9//9 10//10 11//11 12//12
usemtl DefaultLib_Material11.002
f 47//13 48//14 49//15 50//15
f 51//16 52//17 53//17 54//16
f 55//15 56//18 57//18 58//15
f 59//19 60//20 61//21 62//13
f 63//17 64//22 65//17 66//17
f 67//23 68//23 69//23 70//23
f 71//24 72//16 73//16 74//22
f 75//25 76//25 77//25 78//25
f 79//16 80//16 81//16 82//16
f 83//26 84//26 85//26 86//26
f 87//16 88//16 89//16 90//16
f 91//27 92//27 93//27 94//27
f 95//16 96//16 97//16 98//16
f 99//28 100//28 101//28 102//28
f 103//16 104//29 105//29 106//16
f 107//30 108//31 109//32 110//33
f 111//34 112//35 113//35 114//35
f 115//36 116//36 117//37 118//30
f 119//35 120//16 121//16 122//35
f 123//38 124//38 125//36 126//36
f 127//20 128//39 129//21
f 130//40 131//39 132//20
f 133//41 134//1 135//4 136//40
f 137//42 138//2 139//43 140//41
f 141//44 142//3 143//2 144//42
f 145//32 146//45 147//44
f 148//31 149//45 150//32
f 151//46 152//46 153//46 154//46
f 155//46 156//5 157//47 158//46
f 159//6 160//48 161//49 162//50
f 163//48 164//51 165//52 166//49
f 167//53 168//9 169//54 170//52
f 171//10 172//46 173//46 174//55
f 175//46 176//46 177//46 178//46
f 179//56 180//57 181//53 182//48
f 183//58 184//59 185//60 186//58
f 187//61 188//62 189//63 190//64
f 191//62 192//65 193//6 194//63
f 195//65 196//66 197//48 198//6
f 199//57 200//67 201//9 202//53
f 203//68 204//69 205//70 206//71
f 207//69 208//72 209//73 210//74
f 211//75 212//76 213//76 214//77
usemtl cubePolygon.002
f 13//21 14//59 15//58
f 16//76 17//75 18//31
f 19//78 20//31 21//72 22//69
f 23//44 24//45 25//79 26//67
f 27//3 28//44 29//67 30//57
f 31//40 32//80 33//66 34//65
f 35//81 36//40 37//65 38//62
f 39//21 40//39 41//82 42//61
f 43//57 44//56 45//4 46//3
