# Blender v2.77 (sub 0) OBJ File: ''
# www.blender.org
mtllib ship1.mtl
o ship1_cube1
v 0.030083 -0.447899 0.153375
v -0.030071 -0.448546 0.153274
v -0.032876 -0.368489 0.166490
v 0.032916 -0.367569 0.166648
v 0.284461 0.446101 -0.028079
v 0.030083 -0.447899 0.153375
v 0.032916 -0.367569 0.166648
v -0.030071 -0.448546 0.153274
v -0.284465 0.446101 -0.028079
v -0.032876 -0.368489 0.166490
v 0.059462 0.387687 0.291372
v 0.284461 0.739149 -0.028079
v 0.055263 0.268155 0.271641
v -0.059465 0.387601 0.291357
v 0.059462 0.387687 0.291372
v 0.055263 0.268155 0.271641
v -0.055266 0.268357 0.271670
v -0.284465 0.739149 -0.028079
v -0.059465 0.387601 0.291357
v -0.055266 0.268357 0.271670
v -0.284465 0.739149 -0.028079
v -0.055266 0.268357 0.271670
v -0.032876 -0.368489 0.166490
v -0.284465 0.446101 -0.028079
v 0.284461 0.446101 -0.028079
v 0.032916 -0.367569 0.166648
v 0.055263 0.268155 0.271641
v 0.284461 0.739149 -0.028079
v 0.032916 -0.367569 0.166648
v -0.032876 -0.368489 0.166490
v -0.055266 0.268357 0.271670
v 0.055263 0.268155 0.271641
v -0.991991 -1.451105 -0.152314
v -1.232694 1.393583 -0.589009
v -1.422345 0.819882 -0.253783
v -1.422345 0.272829 -0.253783
v -1.422345 0.272829 0.122270
v -0.991991 -1.451105 0.020800
v -0.991991 -1.451105 -0.152314
v -1.422345 0.272829 -0.253783
v -1.422345 0.819882 -0.253783
v -1.422345 0.819882 0.122270
v -1.422345 0.272829 0.122270
v -1.422345 0.272829 -0.253783
v -1.006027 -0.195116 -0.589010
v -1.043057 1.393583 -0.589009
v -1.232694 1.393583 -0.589009
v -0.991991 -1.451105 -0.152314
v -0.991991 -1.451105 0.020800
v -1.006026 -0.195116 0.457497
v -1.006027 -0.195116 -0.589010
v -0.991991 -1.451105 -0.152314
v -0.853405 0.159855 -0.152313
v -0.853405 0.403060 -0.152313
v -1.043057 1.393583 -0.589009
v -1.006027 -0.195116 -0.589010
v -1.006026 -0.195116 0.457497
v -0.853405 0.159855 0.020800
v -0.853405 0.159855 -0.152313
v -1.006027 -0.195116 -0.589010
v -0.474116 -0.968952 -0.122805
v -0.474116 1.393583 -0.589010
v -0.663753 0.681656 -0.152313
v -0.663753 0.159855 -0.152313
v -0.663753 0.159855 0.020800
v -0.474116 -0.968952 -0.008709
v -0.474116 -0.968952 -0.122805
v -0.663753 0.159855 -0.152313
v -0.284465 0.446101 -0.103434
v -0.284465 0.739149 -0.103434
v -0.474116 1.393583 -0.589010
v -0.474116 -0.968952 -0.122805
v -0.474116 -0.968952 -0.008709
v -0.284465 0.446101 -0.028079
v -0.284465 0.446101 -0.103434
v -0.474116 -0.968952 -0.122805
v -0.000979 -1.275978 -0.148143
v -0.094828 1.393583 -0.589010
v -0.284465 0.739149 -0.103434
v -0.284465 0.446101 -0.103434
v -0.284465 0.446101 -0.028079
v -0.000979 -1.275978 0.016630
v -0.000979 -1.275978 -0.148143
v -0.284465 0.446101 -0.103434
v 0.000976 -1.275978 -0.148143
v 0.094824 1.393583 -0.589010
v -0.094828 1.393583 -0.589010
v -0.000979 -1.275978 -0.148143
v -0.000979 -1.275978 0.016630
v 0.000976 -1.275978 0.016630
v 0.000976 -1.275978 -0.148143
v -0.000979 -1.275978 -0.148143
v 0.284461 0.446101 -0.103434
v 0.284461 0.739149 -0.103434
v 0.094824 1.393583 -0.589010
v 0.000976 -1.275978 -0.148143
v 0.000976 -1.275978 0.016630
v 0.284461 0.446101 -0.028079
v 0.284461 0.446101 -0.103434
v 0.000976 -1.275978 -0.148143
v 0.474113 -0.968952 -0.122805
v 0.474113 1.393583 -0.589010
v 0.284461 0.739149 -0.103434
v 0.284461 0.446101 -0.103434
v 0.284461 0.446101 -0.028079
v 0.474113 -0.968952 -0.008709
v 0.474113 -0.968952 -0.122805
v 0.284461 0.446101 -0.103434
v 0.663750 0.159855 -0.152314
v 0.663750 0.681656 -0.152314
v 0.474113 1.393583 -0.589010
v 0.474113 -0.968952 -0.122805
v 0.474113 -0.968952 -0.008709
v 0.663750 0.159855 0.020800
v 0.663750 0.159855 -0.152314
v 0.474113 -0.968952 -0.122805
v 1.006023 -0.195116 -0.589010
v 1.043053 1.393583 -0.589010
v 0.853402 0.403060 -0.152314
v 0.853402 0.159855 -0.152314
v 0.853402 0.159855 0.020800
v 1.006024 -0.195116 0.457496
v 1.006023 -0.195116 -0.589010
v 0.853402 0.159855 -0.152314
v 0.991988 -1.451105 -0.152314
v 1.232691 1.393583 -0.589010
v 1.043053 1.393583 -0.589010
v 1.006023 -0.195116 -0.589010
v 1.006024 -0.195116 0.457496
v 0.991988 -1.451105 0.020800
v 0.991988 -1.451105 -0.152314
v 1.006023 -0.195116 -0.589010
v 1.422342 0.272829 -0.253784
v 1.422342 0.819882 -0.253783
v 1.232691 1.393583 -0.589010
v 0.991988 -1.451105 -0.152314
v 0.991988 -1.451105 0.020800
v 1.422342 0.272829 0.122270
v 1.422342 0.272829 -0.253784
v 0.991988 -1.451105 -0.152314
v 1.422342 0.272829 0.122270
v 1.422342 0.819882 0.122270
v 1.422342 0.819882 -0.253783
v 1.422342 0.272829 -0.253784
v -1.232694 1.393583 -0.589009
v -1.232694 1.393583 0.457497
v -1.422345 0.819882 0.122270
v -1.422345 0.819882 -0.253783
v -1.043057 1.393583 -0.589009
v -1.043056 1.393583 0.457497
v -1.232694 1.393583 0.457497
v -1.232694 1.393583 -0.589009
v -0.853405 0.403060 -0.152313
v -0.853405 0.403060 0.020801
v -1.043056 1.393583 0.457497
v -1.043057 1.393583 -0.589009
v -0.474116 1.393583 -0.589010
v -0.474116 1.393583 0.457497
v -0.663753 0.681656 0.020801
v -0.663753 0.681656 -0.152313
v -0.284465 0.739149 -0.103434
v -0.284465 0.739149 -0.028079
v -0.474116 1.393583 0.457497
v -0.474116 1.393583 -0.589010
v -0.094828 1.393583 -0.589010
v -0.094827 1.393583 0.457497
v -0.284465 0.739149 -0.028079
v -0.284465 0.739149 -0.103434
v 0.094824 1.393583 -0.589010
v 0.094824 1.393583 0.457497
v -0.094827 1.393583 0.457497
v -0.094828 1.393583 -0.589010
v 0.284461 0.739149 -0.103434
v 0.284461 0.739149 -0.028079
v 0.094824 1.393583 0.457497
v 0.094824 1.393583 -0.589010
v 0.474113 1.393583 -0.589010
v 0.474113 1.393583 0.457497
v 0.284461 0.739149 -0.028079
v 0.284461 0.739149 -0.103434
v 0.663750 0.681656 -0.152314
v 0.663750 0.681656 0.020800
v 0.474113 1.393583 0.457497
v 0.474113 1.393583 -0.589010
v 1.043053 1.393583 -0.589010
v 1.043054 1.393583 0.457497
v 0.853402 0.403060 0.020800
v 0.853402 0.403060 -0.152314
v 1.232691 1.393583 -0.589010
v 1.232691 1.393583 0.457497
v 1.043054 1.393583 0.457497
v 1.043053 1.393583 -0.589010
v 1.422342 0.819882 -0.253783
v 1.422342 0.819882 0.122270
v 1.232691 1.393583 0.457497
v 1.232691 1.393583 -0.589010
v -1.422345 0.819882 0.122270
v -1.232694 1.393583 0.457497
v -0.991991 -1.451105 0.020800
v -1.422345 0.272829 0.122270
v -1.232694 1.393583 0.457497
v -1.043056 1.393583 0.457497
v -1.006026 -0.195116 0.457497
v -0.991991 -1.451105 0.020800
v -1.043056 1.393583 0.457497
v -0.853405 0.403060 0.020801
v -0.853405 0.159855 0.020800
v -1.006026 -0.195116 0.457497
v -0.663753 0.681656 0.020801
v -0.474116 1.393583 0.457497
v -0.474116 -0.968952 -0.008709
v -0.663753 0.159855 0.020800
v -0.474116 1.393583 0.457497
v -0.284465 0.739149 -0.028079
v -0.284465 0.446101 -0.028079
v -0.474116 -0.968952 -0.008709
v -0.030071 -0.448546 0.153274
v 0.030083 -0.447899 0.153375
v 0.000976 -1.275978 0.016630
v -0.000979 -1.275978 0.016630
v 0.030083 -0.447899 0.153375
v 0.284461 0.446101 -0.028079
v 0.000976 -1.275978 0.016630
v 0.284461 0.739149 -0.028079
v 0.474113 1.393583 0.457497
v 0.474113 -0.968952 -0.008709
v 0.284461 0.446101 -0.028079
v 0.474113 1.393583 0.457497
v 0.663750 0.681656 0.020800
v 0.663750 0.159855 0.020800
v 0.474113 -0.968952 -0.008709
v 0.853402 0.403060 0.020800
v 1.043054 1.393583 0.457497
v 1.006024 -0.195116 0.457496
v 0.853402 0.159855 0.020800
v 1.043054 1.393583 0.457497
v 1.232691 1.393583 0.457497
v 0.991988 -1.451105 0.020800
v 1.006024 -0.195116 0.457496
v 1.232691 1.393583 0.457497
v 1.422342 0.819882 0.122270
v 1.422342 0.272829 0.122270
v 0.991988 -1.451105 0.020800
v 0.059462 0.387687 0.291372
v -0.059465 0.387601 0.291357
v -0.094827 1.393583 0.457497
v 0.094824 1.393583 0.457497
v 0.284461 0.739149 -0.028079
v 0.059462 0.387687 0.291372
v 0.094824 1.393583 0.457497
v -0.284465 0.446101 -0.028079
v -0.030071 -0.448546 0.153274
v -0.000979 -1.275978 0.016630
v -0.059465 0.387601 0.291357
v -0.284465 0.739149 -0.028079
v -0.094827 1.393583 0.457497
v -0.663753 0.159855 -0.152313
v -0.663753 0.681656 -0.152313
v -0.853405 0.403060 -0.152313
v -0.853405 0.159855 -0.152313
v -0.853405 0.159855 0.020800
v -0.663753 0.159855 0.020800
v -0.663753 0.159855 -0.152313
v -0.853405 0.159855 -0.152313
v 0.853402 0.159855 -0.152314
v 0.853402 0.403060 -0.152314
v 0.663750 0.681656 -0.152314
v 0.663750 0.159855 -0.152314
v 0.663750 0.159855 0.020800
v 0.853402 0.159855 0.020800
v 0.853402 0.159855 -0.152314
v 0.663750 0.159855 -0.152314
v -0.663753 0.681656 -0.152313
v -0.663753 0.681656 0.020801
v -0.853405 0.403060 0.020801
v -0.853405 0.403060 -0.152313
v 0.853402 0.403060 -0.152314
v 0.853402 0.403060 0.020800
v 0.663750 0.681656 0.020800
v 0.663750 0.681656 -0.152314
v -0.853405 0.403060 0.020801
v -0.663753 0.681656 0.020801
v -0.663753 0.159855 0.020800
v -0.853405 0.159855 0.020800
v 0.663750 0.681656 0.020800
v 0.853402 0.403060 0.020800
v 0.853402 0.159855 0.020800
v 0.663750 0.159855 0.020800
vn 0.464000 0.128500 -0.876500
vn -0.463900 0.128500 -0.876500
vn -0.461400 0.139500 -0.876200
vn 0.461300 0.139500 -0.876200
vn -0.737200 0.113200 -0.666100
vn -0.992000 0.054000 -0.114400
vn -0.991900 0.064100 -0.109300
vn -0.961100 -0.249400 0.118500
vn -0.493800 0.043500 0.868500
vn -0.758200 -0.039600 0.650800
vn -0.865900 0.110900 -0.487800
vn -0.799500 0.212300 -0.561800
vn -0.998600 0.040800 0.032500
vn -0.000000 -0.162900 0.986600
vn 0.010000 -0.615700 0.787900
vn -0.011800 -0.615600 0.787900
vn 0.799600 0.212500 -0.561700
vn 0.865900 0.111000 -0.487700
vn 0.998600 0.040800 0.032600
vn -0.748700 0.098100 0.655600
vn -0.896000 -0.097000 0.433300
vn -0.953900 -0.254800 0.158500
vn -0.564900 0.215000 0.796600
vn 0.896000 -0.097000 0.433300
vn 0.748700 0.098200 0.655600
vn 0.565000 0.214900 0.796600
vn 0.953900 -0.254900 0.158600
vn -0.004400 -0.599700 0.800200
vn 0.011700 0.329700 0.944000
vn -0.010100 0.329700 0.944000
vn 0.017300 -0.599400 0.800300
vn -0.215000 -0.124100 -0.968700
vn -0.936800 -0.185800 -0.296500
vn -0.954300 0.036200 -0.296500
vn -0.462500 -0.200500 -0.863600
vn 0.900000 0.316700 0.299400
vn 0.822500 0.234500 0.518100
vn 0.822500 0.234500 -0.518100
vn 0.900000 0.316700 -0.299400
vn 0.950500 0.063800 -0.304200
vn 0.950500 0.063800 0.304200
vn 0.943300 -0.143500 0.299400
vn 0.943300 -0.143500 -0.299400
vn -0.771400 -0.110100 -0.626700
vn -0.693300 -0.214800 -0.687900
vn -0.757400 -0.243500 -0.605800
vn -0.999900 -0.011200 0.000000
vn -0.981500 -0.147800 0.121700
vn -0.981500 -0.147800 -0.121700
vn 0.996300 0.014700 -0.085100
vn 0.807100 0.113500 -0.579500
vn 0.847600 0.018900 -0.530300
vn 0.986700 0.016600 -0.161600
vn 0.764000 -0.639000 -0.089900
vn 0.764000 -0.639000 0.089900
vn 0.991500 -0.130200 0.004000
vn 0.991500 -0.130200 -0.004000
vn -0.527400 -0.163000 -0.833800
vn -0.734400 -0.084300 -0.673500
vn -0.879400 -0.310200 -0.361300
vn -0.489600 -0.172400 -0.854700
vn -0.841000 0.540300 0.029700
vn -0.841000 0.540300 -0.029700
vn -0.876800 -0.480300 0.024300
vn -0.876800 -0.480300 -0.024300
vn 0.961300 -0.078000 -0.264100
vn 0.689700 -0.137900 -0.710800
vn 0.647800 -0.150400 -0.746800
vn 0.975200 -0.071600 -0.209600
vn -0.954200 0.141100 0.263700
vn -0.954200 0.141100 -0.263700
vn -0.890600 -0.177500 -0.418700
vn -0.955700 -0.094100 -0.278700
vn -0.971200 -0.084700 -0.222500
vn -0.851500 0.066300 -0.520200
vn -0.958600 0.284700 0.008900
vn -0.992900 0.119000 -0.009300
vn -0.662500 -0.745800 -0.069700
vn -0.654100 -0.752500 0.076900
vn 0.047400 -0.853800 -0.518400
vn -0.047400 -0.853800 -0.518400
vn -0.135500 0.645500 -0.751600
vn 0.135500 0.645500 -0.751600
vn 0.000000 1.000000 0.000000
vn 0.955700 -0.094100 -0.278700
vn 0.890600 -0.177500 -0.418700
vn 0.851500 0.066300 -0.520200
vn 0.971200 -0.084700 -0.222500
vn -0.767300 0.064900 0.638000
vn -0.884400 0.165900 0.436200
vn -0.944900 0.172200 -0.278300
vn -0.773200 0.073000 -0.629900
vn -0.689700 -0.137900 -0.710800
vn -0.961300 -0.078000 -0.264100
vn -0.975200 -0.071600 -0.209600
vn -0.647800 -0.150400 -0.746800
vn -0.991000 0.133400 0.009500
vn -0.991000 0.133400 -0.009500
vn -0.920900 -0.389700 0.009500
vn -0.920900 -0.389700 -0.009500
vn 0.734400 -0.084300 -0.673500
vn 0.527400 -0.163000 -0.833800
vn 0.489600 -0.172400 -0.854700
vn 0.879400 -0.310200 -0.361300
vn -0.928600 0.172000 0.328900
vn -0.727600 0.134700 0.672700
vn -0.727600 0.134700 -0.672700
vn -0.928600 0.172000 -0.328900
vn -0.807100 0.113500 -0.579500
vn -0.996300 0.014700 -0.085100
vn -0.986700 0.016600 -0.161600
vn -0.847600 0.018900 -0.530300
vn -0.991500 -0.130200 -0.004000
vn -0.991500 -0.130200 0.004000
vn -0.764000 -0.639000 0.089900
vn -0.764000 -0.639000 -0.089900
vn 0.693300 -0.214800 -0.687900
vn 0.771400 -0.110100 -0.626700
vn 0.757400 -0.243500 -0.605800
vn 0.981500 -0.147800 0.121700
vn 0.999900 -0.011200 -0.000000
vn 0.981500 -0.147800 -0.121700
vn 0.936800 -0.185800 -0.296500
vn 0.215000 -0.124100 -0.968700
vn 0.462500 -0.200500 -0.863600
vn 0.954300 0.036200 -0.296500
vn -0.822500 0.234500 0.518100
vn -0.900000 0.316700 0.299400
vn -0.900000 0.316700 -0.299400
vn -0.822500 0.234500 -0.518100
vn -0.943300 -0.143500 0.299400
vn -0.950500 0.063800 0.304200
vn -0.950500 0.063800 -0.304200
vn -0.943300 -0.143500 -0.299400
vn 0.949500 -0.313900 -0.000000
vn 0.801200 -0.515300 0.304200
vn 0.801200 -0.515300 -0.304200
vn 0.000000 -1.000000 -0.000000
vn -0.947800 -0.263200 -0.179900
vn -0.947800 -0.263200 0.179900
vn 0.856300 -0.393600 -0.334400
vn 0.856300 -0.393600 0.334400
vn 0.828600 -0.209500 0.519100
vn 0.828600 -0.209500 -0.519100
vn -0.863000 -0.428100 -0.268300
vn -0.863000 -0.428100 0.268300
vn 0.647400 -0.404900 -0.645700
vn 0.860400 -0.440000 0.257000
vn 0.769100 -0.495300 0.403900
vn 0.855500 -0.433100 -0.283700
vn -0.855500 -0.433100 -0.283700
vn -0.769100 -0.495300 0.403900
vn -0.860400 -0.440000 0.257000
vn -0.647400 -0.404900 -0.645700
vn -0.822100 0.569000 -0.016500
vn -0.999000 -0.041300 0.016500
vn -0.999000 -0.041300 -0.016500
vn -0.822100 0.569000 0.016500
vn -0.828600 -0.209500 -0.519100
vn -0.828600 -0.209500 0.519100
vn -0.856300 -0.393600 0.334400
vn -0.856300 -0.393600 -0.334400
vn 0.947800 -0.263200 -0.179900
vn 0.947800 -0.263200 0.179900
vn 0.995500 -0.072600 -0.060400
vn 0.949500 0.313900 0.000000
vn 0.995500 -0.072600 0.060400
vn -0.954300 0.036200 0.296500
vn -0.936800 -0.185800 0.296500
vn -0.215000 -0.124100 0.968700
vn -0.462500 -0.200500 0.863600
vn -0.757400 -0.243500 0.605800
vn -0.693300 -0.214800 0.687900
vn -0.771400 -0.110100 0.626700
vn 0.847600 0.018900 0.530300
vn 0.807100 0.113500 0.579500
vn 0.996300 0.014700 0.085100
vn 0.986700 0.016600 0.161600
vn -0.879400 -0.310200 0.361300
vn -0.734400 -0.084300 0.673500
vn -0.527400 -0.163000 0.833800
vn -0.489600 -0.172400 0.854700
vn 0.647800 -0.150400 0.746800
vn 0.689700 -0.137900 0.710800
vn 0.961300 -0.078000 0.264100
vn 0.975200 -0.071600 0.209600
vn -0.005100 0.313800 0.949500
vn -0.052000 -0.847400 0.528500
vn 0.052100 -0.847200 0.528700
vn -0.005000 0.313600 0.949500
vn 0.494600 0.035500 0.868400
vn 0.869900 -0.184100 0.457700
vn 0.746700 -0.068800 0.661600
vn -0.975200 -0.071600 0.209600
vn -0.961300 -0.078000 0.264100
vn -0.689700 -0.137900 0.710800
vn -0.647800 -0.150400 0.746800
vn 0.489600 -0.172400 0.854700
vn 0.527400 -0.163000 0.833800
vn 0.734400 -0.084300 0.673500
vn 0.879400 -0.310200 0.361300
vn -0.986700 0.016600 0.161600
vn -0.996300 0.014700 0.085100
vn -0.807100 0.113500 0.579500
vn -0.847600 0.018900 0.530300
vn 0.771400 -0.110100 0.626700
vn 0.693300 -0.214800 0.687900
vn 0.757400 -0.243500 0.605800
vn 0.462500 -0.200500 0.863600
vn 0.215000 -0.124100 0.968700
vn 0.936800 -0.185800 0.296500
vn 0.954300 0.036200 0.296500
vn 0.884200 -0.227100 0.408200
vn 0.664200 -0.144400 0.733500
vn 0.865900 -0.111000 0.487800
vn -0.746700 -0.068800 0.661600
vn -0.869900 -0.184100 0.457500
vn -0.494600 0.035300 0.868400
vn -0.865900 -0.111000 0.487800
vn -0.664100 -0.144500 0.733500
vn -0.884200 -0.227000 0.408100
vn -0.731700 -0.110400 0.672700
vn -0.823000 0.230500 0.519100
vn 0.000000 -0.000000 1.000000
vn 0.823000 0.230500 0.519100
vn 0.731700 -0.110400 0.672700
vn -0.377500 0.885000 0.272600
vn -0.826600 0.562700 0.000000
vn -0.377500 0.885000 -0.272600
vn -0.826600 -0.562700 -0.000000
vn -0.516200 -0.681200 0.519100
vn -0.516200 -0.681200 -0.519100
vn 0.110400 0.731700 0.672700
vn 0.810100 -0.272600 0.519100
vn 0.823000 0.230500 -0.519100
vn 0.000000 0.000000 -1.000000
vn 0.731700 -0.110400 -0.672700
usemtl cube1Polygon1.001
s 1
f 1//1 2//2 3//3 4//4
f 5//5 6//6 7//7
f 8//8 10//9 9//10
f 11//11 12//12 13//13
f 14//14 17//15 16//16 15//14
f 18//17 19//18 20//19
usemtl cube1Polygon.001
f 21//20 24//21 23//22 22//23
f 25//24 28//25 27//26 26//27
f 29//28 32//29 31//30 30//31
usemtl DefaultLib_Material20.001
f 33//32 36//33 35//34 34//35
f 37//36 38//37 39//38 40//39
f 41//40 42//41 43//42 44//43
f 45//44 48//45 47//46 46//44
f 49//47 50//48 51//49 52//47
f 53//50 56//51 55//52 54//53
f 57//54 60//55 59//56 58//57
f 61//58 64//59 63//60 62//61
f 65//62 68//63 67//64 66//65
f 69//66 72//67 71//68 70//69
f 73//70 74//70 75//71 76//71
f 77//72 80//73 79//74 78//75
f 81//76 84//77 83//78 82//79
f 85//80 88//81 87//82 86//83
f 89//84 90//84 91//84 92//84
f 93//85 96//86 95//87 94//88
f 97//89 98//90 99//91 100//92
f 101//93 104//94 103//95 102//96
f 105//97 108//98 107//99 106//100
f 109//101 112//102 111//103 110//104
f 113//105 114//106 115//107 116//108
f 117//109 120//110 119//111 118//112
f 121//113 124//114 123//115 122//116
f 125//117 128//118 127//118 126//119
f 129//120 130//121 131//121 132//122
f 133//123 136//124 135//125 134//126
f 137//127 138//128 139//129 140//130
f 141//131 142//132 143//133 144//134
f 145//135 146//135 147//136 148//137
f 149//138 150//138 151//138 152//138
f 153//139 154//140 155//140 156//139
f 157//141 158//142 159//143 160//144
f 161//145 162//146 163//146 164//145
f 165//147 166//148 167//149 168//150
f 169//138 170//138 171//138 172//138
f 173//151 174//152 175//153 176//154
f 177//155 180//156 179//157 178//158
f 181//159 182//160 183//161 184//162
f 185//163 186//164 187//164 188//163
f 189//138 190//138 191//138 192//138
f 193//165 196//166 195//166 194//167
f 197//168 200//169 199//170 198//171
f 201//172 204//173 203//174 202//174
f 205//175 208//176 207//177 206//178
f 209//179 212//180 211//181 210//182
f 213//183 216//184 215//185 214//186
f 217//187 220//188 219//189 218//190
f 221//191 223//192 222//193
f 224//194 227//195 226//196 225//197
f 228//198 231//199 230//200 229//201
f 232//202 235//203 234//204 233//205
f 236//206 239//206 238//207 237//208
f 240//209 243//210 242//211 241//212
f 244//14 247//14 246//14 245//14
f 248//213 250//214 249//215
f 251//216 253//217 252//218
f 254//219 256//220 255//221
usemtl cube1Polygon2.001
f 257//222 258//223 259//224 260//224
f 261//84 262//84 263//84 264//84
f 265//224 266//224 267//225 268//226
f 269//84 270//84 271//84 272//84
f 273//227 276//228 275//228 274//229
f 277//230 278//230 279//231 280//232
f 281//224 284//224 283//233 282//234
f 285//235 286//236 287//236 288//237
