# Blender v2.77 (sub 0) OBJ File: ''
# www.blender.org
mtllib ship7.mtl
o ship7_sphere.004
v 0.000000 -1.000000 -0.000000
v -0.062316 -0.923880 -0.353550
v 0.062313 -0.923880 -0.353557
v -0.115136 -0.707110 -0.653278
v 0.115136 -0.707110 -0.653288
v 0.062313 -0.923880 -0.353557
v -0.062316 -0.923880 -0.353550
v -0.150441 -0.382680 -0.853554
v 0.150432 -0.382680 -0.853555
v 0.115136 -0.707110 -0.653288
v -0.115136 -0.707110 -0.653278
v -0.162832 0.000000 -0.923879
v 0.162829 0.000000 -0.923885
v 0.150432 -0.382680 -0.853555
v -0.150441 -0.382680 -0.853554
v -0.150441 0.382680 -0.853554
v 0.150432 0.382680 -0.853555
v 0.162829 0.000000 -0.923885
v -0.162832 0.000000 -0.923879
v -0.115136 0.707110 -0.653278
v 0.115136 0.707110 -0.653288
v 0.150432 0.382680 -0.853555
v -0.150441 0.382680 -0.853554
v -0.062316 0.923880 -0.353550
v 0.062313 0.923880 -0.353557
v 0.115136 0.707110 -0.653288
v -0.115136 0.707110 -0.653278
v 0.000000 1.000000 0.000000
v 0.062313 0.923880 -0.353557
v -0.062316 0.923880 -0.353550
v 0.000000 -1.000000 -0.000000
v 0.353551 -0.923880 -0.067598
v 0.353555 -0.923880 0.067595
v 0.653288 -0.707110 -0.124906
v 0.653278 -0.707110 0.124906
v 0.353555 -0.923880 0.067595
v 0.353551 -0.923880 -0.067598
v 0.853554 -0.382680 -0.163192
v 0.853552 -0.382680 0.163192
v 0.653278 -0.707110 0.124906
v 0.653288 -0.707110 -0.124906
v 0.923884 0.000000 -0.176641
v 0.923880 -0.000000 0.176639
v 0.853552 -0.382680 0.163192
v 0.853554 -0.382680 -0.163192
v 0.853554 0.382680 -0.163192
v 0.853552 0.382680 0.163192
v 0.923880 -0.000000 0.176639
v 0.923884 0.000000 -0.176641
v 0.653288 0.707110 -0.124906
v 0.653278 0.707110 0.124906
v 0.853552 0.382680 0.163192
v 0.853554 0.382680 -0.163192
v 0.353551 0.923880 -0.067598
v 0.353555 0.923880 0.067595
v 0.653278 0.707110 0.124906
v 0.653288 0.707110 -0.124906
v 0.000000 1.000000 0.000000
v 0.353555 0.923880 0.067595
v 0.353551 0.923880 -0.067598
v 0.000000 -1.000000 -0.000000
v 0.062316 -0.923880 0.353550
v -0.062313 -0.923880 0.353557
v 0.115136 -0.707110 0.653278
v -0.115136 -0.707110 0.653288
v -0.062313 -0.923880 0.353557
v 0.062316 -0.923880 0.353550
v 0.150441 -0.382680 0.853554
v -0.150432 -0.382680 0.853555
v -0.115136 -0.707110 0.653288
v 0.115136 -0.707110 0.653278
v 0.162832 -0.000000 0.923879
v -0.162829 -0.000000 0.923885
v -0.150432 -0.382680 0.853555
v 0.150441 -0.382680 0.853554
v 0.150441 0.382680 0.853554
v -0.150432 0.382680 0.853555
v -0.162829 -0.000000 0.923885
v 0.162832 -0.000000 0.923879
v 0.115136 0.707110 0.653278
v -0.115136 0.707110 0.653288
v -0.150432 0.382680 0.853555
v 0.150441 0.382680 0.853554
v 0.062316 0.923880 0.353550
v -0.062313 0.923880 0.353557
v -0.115136 0.707110 0.653288
v 0.115136 0.707110 0.653278
v 0.000000 1.000000 0.000000
v -0.062313 0.923880 0.353557
v 0.062316 0.923880 0.353550
v 0.000000 -1.000000 -0.000000
v -0.353551 -0.923880 0.067598
v -0.353555 -0.923880 -0.067595
v -0.653288 -0.707110 0.124906
v -0.653278 -0.707110 -0.124906
v -0.353555 -0.923880 -0.067595
v -0.353551 -0.923880 0.067598
v -0.853554 -0.382680 0.163192
v -0.853552 -0.382680 -0.163192
v -0.653278 -0.707110 -0.124906
v -0.653288 -0.707110 0.124906
v -0.923884 -0.000000 0.176641
v -0.923880 0.000000 -0.176639
v -0.853552 -0.382680 -0.163192
v -0.853554 -0.382680 0.163192
v -0.853554 0.382680 0.163192
v -0.853552 0.382680 -0.163192
v -0.923880 0.000000 -0.176639
v -0.923884 -0.000000 0.176641
v -0.653288 0.707110 0.124906
v -0.653278 0.707110 -0.124906
v -0.853552 0.382680 -0.163192
v -0.853554 0.382680 0.163192
v -0.353551 0.923880 0.067598
v -0.353555 0.923880 -0.067595
v -0.653278 0.707110 -0.124906
v -0.653288 0.707110 0.124906
v 0.000000 1.000000 0.000000
v -0.353555 0.923880 -0.067595
v -0.353551 0.923880 0.067598
v 0.000000 -1.000000 -0.000000
v -0.353555 -0.923880 -0.067595
v -0.062316 -0.923880 -0.353550
v -0.653278 -0.707110 -0.124906
v -0.115136 -0.707110 -0.653278
v -0.062316 -0.923880 -0.353550
v -0.353555 -0.923880 -0.067595
v -0.853552 -0.382680 -0.163192
v -0.150441 -0.382680 -0.853554
v -0.115136 -0.707110 -0.653278
v -0.653278 -0.707110 -0.124906
v -0.923880 0.000000 -0.176639
v -0.162832 0.000000 -0.923879
v -0.150441 -0.382680 -0.853554
v -0.853552 -0.382680 -0.163192
v -0.853552 0.382680 -0.163192
v -0.150441 0.382680 -0.853554
v -0.162832 0.000000 -0.923879
v -0.923880 0.000000 -0.176639
v -0.653278 0.707110 -0.124906
v -0.115136 0.707110 -0.653278
v -0.150441 0.382680 -0.853554
v -0.853552 0.382680 -0.163192
v -0.353555 0.923880 -0.067595
v -0.062316 0.923880 -0.353550
v -0.115136 0.707110 -0.653278
v -0.653278 0.707110 -0.124906
v 0.000000 1.000000 0.000000
v -0.062316 0.923880 -0.353550
v -0.353555 0.923880 -0.067595
v 0.000000 -1.000000 -0.000000
v 0.062313 -0.923880 -0.353557
v 0.353551 -0.923880 -0.067598
v 0.115136 -0.707110 -0.653288
v 0.653288 -0.707110 -0.124906
v 0.353551 -0.923880 -0.067598
v 0.062313 -0.923880 -0.353557
v 0.150432 -0.382680 -0.853555
v 0.853554 -0.382680 -0.163192
v 0.653288 -0.707110 -0.124906
v 0.115136 -0.707110 -0.653288
v 0.162829 0.000000 -0.923885
v 0.923884 0.000000 -0.176641
v 0.853554 -0.382680 -0.163192
v 0.150432 -0.382680 -0.853555
v 0.150432 0.382680 -0.853555
v 0.853554 0.382680 -0.163192
v 0.923884 0.000000 -0.176641
v 0.162829 0.000000 -0.923885
v 0.115136 0.707110 -0.653288
v 0.653288 0.707110 -0.124906
v 0.853554 0.382680 -0.163192
v 0.150432 0.382680 -0.853555
v 0.062313 0.923880 -0.353557
v 0.353551 0.923880 -0.067598
v 0.653288 0.707110 -0.124906
v 0.115136 0.707110 -0.653288
v 0.000000 1.000000 0.000000
v 0.353551 0.923880 -0.067598
v 0.062313 0.923880 -0.353557
v 0.000000 -1.000000 -0.000000
v 0.353555 -0.923880 0.067595
v 0.062316 -0.923880 0.353550
v 0.653278 -0.707110 0.124906
v 0.115136 -0.707110 0.653278
v 0.062316 -0.923880 0.353550
v 0.353555 -0.923880 0.067595
v 0.853552 -0.382680 0.163192
v 0.150441 -0.382680 0.853554
v 0.115136 -0.707110 0.653278
v 0.653278 -0.707110 0.124906
v 0.923880 -0.000000 0.176639
v 0.162832 -0.000000 0.923879
v 0.150441 -0.382680 0.853554
v 0.853552 -0.382680 0.163192
v 0.853552 0.382680 0.163192
v 0.150441 0.382680 0.853554
v 0.162832 -0.000000 0.923879
v 0.923880 -0.000000 0.176639
v 0.653278 0.707110 0.124906
v 0.115136 0.707110 0.653278
v 0.150441 0.382680 0.853554
v 0.853552 0.382680 0.163192
v 0.353555 0.923880 0.067595
v 0.062316 0.923880 0.353550
v 0.115136 0.707110 0.653278
v 0.653278 0.707110 0.124906
v 0.000000 1.000000 0.000000
v 0.062316 0.923880 0.353550
v 0.353555 0.923880 0.067595
v 0.000000 -1.000000 -0.000000
v -0.062313 -0.923880 0.353557
v -0.353551 -0.923880 0.067598
v -0.115136 -0.707110 0.653288
v -0.653288 -0.707110 0.124906
v -0.353551 -0.923880 0.067598
v -0.062313 -0.923880 0.353557
v -0.150432 -0.382680 0.853555
v -0.853554 -0.382680 0.163192
v -0.653288 -0.707110 0.124906
v -0.115136 -0.707110 0.653288
v -0.162829 -0.000000 0.923885
v -0.923884 -0.000000 0.176641
v -0.853554 -0.382680 0.163192
v -0.150432 -0.382680 0.853555
v -0.150432 0.382680 0.853555
v -0.853554 0.382680 0.163192
v -0.923884 -0.000000 0.176641
v -0.162829 -0.000000 0.923885
v -0.115136 0.707110 0.653288
v -0.653288 0.707110 0.124906
v -0.853554 0.382680 0.163192
v -0.150432 0.382680 0.853555
v -0.062313 0.923880 0.353557
v -0.353551 0.923880 0.067598
v -0.653288 0.707110 0.124906
v -0.115136 0.707110 0.653288
v 0.000000 1.000000 0.000000
v -0.353551 0.923880 0.067598
v -0.062313 0.923880 0.353557
vn 0.000000 -1.000000 0.000000
vn -0.407300 -0.913200 -0.012600
vn -0.295000 -0.912600 -0.282900
vn -0.732600 -0.680500 -0.014200
vn -0.524100 -0.679100 -0.513900
vn -0.295100 -0.912600 -0.282900
vn -0.933200 -0.359200 -0.008700
vn -0.660300 -0.358000 -0.660200
vn -0.732700 -0.680400 -0.014200
vn -1.000000 -0.000000 -0.005600
vn -0.704600 0.000000 -0.709600
vn -0.933200 0.359200 -0.008700
vn -0.660300 0.358000 -0.660200
vn -0.732700 0.680400 -0.014200
vn -0.524200 0.679100 -0.513900
vn -0.407300 0.913200 -0.012600
vn -0.295100 0.912600 -0.282900
vn -0.524100 0.679100 -0.513900
vn -0.732600 0.680500 -0.014200
vn 0.000000 1.000000 0.000000
vn -0.295000 0.912600 -0.282900
vn 0.008600 -0.912600 -0.408700
vn 0.279100 -0.913200 -0.296900
vn 0.007200 -0.679100 -0.734000
vn 0.508000 -0.680500 -0.528100
vn 0.000100 -0.358000 -0.933700
vn 0.653700 -0.359200 -0.666100
vn 0.007300 -0.679100 -0.734000
vn -0.003600 -0.000000 -1.000000
vn 0.703100 0.000000 -0.711100
vn 0.000100 0.358000 -0.933700
vn 0.653700 0.359200 -0.666100
vn 0.007300 0.679100 -0.734000
vn 0.508000 0.680500 -0.528100
vn 0.008600 0.912600 -0.408700
vn 0.279100 0.913200 -0.296900
vn 0.007200 0.679100 -0.734000
vn 0.407300 -0.913200 0.012600
vn 0.295000 -0.912600 0.282900
vn 0.732600 -0.680500 0.014200
vn 0.524100 -0.679100 0.513900
vn 0.295100 -0.912600 0.282900
vn 0.933200 -0.359200 0.008700
vn 0.660300 -0.358000 0.660200
vn 0.524200 -0.679100 0.513900
vn 0.732700 -0.680400 0.014200
vn 1.000000 -0.000000 0.005600
vn 0.704600 0.000000 0.709600
vn 0.933200 0.359200 0.008700
vn 0.660300 0.358000 0.660200
vn 0.732700 0.680400 0.014200
vn 0.524200 0.679100 0.513900
vn 0.407300 0.913200 0.012600
vn 0.295100 0.912600 0.282900
vn 0.524100 0.679100 0.513900
vn 0.732600 0.680500 0.014200
vn 0.295000 0.912600 0.282900
vn -0.008600 -0.912600 0.408700
vn -0.279100 -0.913200 0.296900
vn -0.007200 -0.679100 0.734000
vn -0.508000 -0.680500 0.528100
vn -0.000100 -0.358000 0.933700
vn -0.653700 -0.359200 0.666100
vn -0.007300 -0.679100 0.734000
vn 0.003600 -0.000000 1.000000
vn -0.703100 0.000000 0.711100
vn -0.000100 0.358000 0.933700
vn -0.653700 0.359200 0.666100
vn -0.007300 0.679100 0.734000
vn -0.508000 0.680500 0.528100
vn -0.008600 0.912600 0.408700
vn -0.279100 0.913200 0.296900
vn -0.007200 0.679100 0.734000
vn 0.732700 -0.680500 0.014200
vn 0.732700 0.680500 0.014200
vn -0.732700 -0.680500 -0.014200
vn -0.732700 0.680500 -0.014200
usemtl DefaultLib_Material26.005
s 1
f 121//1 122//2 123//3
f 124//4 125//5 126//6 127//2
f 128//7 129//8 130//5 131//9
f 132//10 133//11 134//8 135//7
f 136//12 137//13 138//11 139//10
f 140//14 141//15 142//13 143//12
f 144//16 145//17 146//18 147//19
f 148//20 149//21 150//16
f 151//1 152//22 153//23
f 154//24 155//25 156//23 157//22
f 158//26 159//27 160//25 161//28
f 162//29 163//30 164//27 165//26
f 166//31 167//32 168//30 169//29
f 170//33 171//34 172//32 173//31
f 174//35 175//36 176//34 177//37
f 178//20 179//36 180//35
f 181//1 182//38 183//39
f 184//40 185//41 186//42 187//38
f 188//43 189//44 190//45 191//46
f 192//47 193//48 194//44 195//43
f 196//49 197//50 198//48 199//47
f 200//51 201//52 202//50 203//49
f 204//53 205//54 206//55 207//56
f 208//20 209//57 210//53
f 211//1 212//58 213//59
f 214//60 215//61 216//59 217//58
f 218//62 219//63 220//61 221//64
f 222//65 223//66 224//63 225//62
f 226//67 227//68 228//66 229//65
f 230//69 231//70 232//68 233//67
f 234//71 235//72 236//70 237//73
f 238//20 239//72 240//71
usemtl spherePolygon.004
f 1//1 2//6 3//22
f 4//5 5//28 6//22 7//3
f 8//8 9//26 10//24 11//5
f 12//11 13//29 14//26 15//8
f 16//13 17//31 18//29 19//11
f 20//18 21//37 22//31 23//13
f 24//21 25//35 26//33 27//18
f 28//20 29//35 30//17
f 31//1 32//23 33//38
f 34//25 35//74 36//38 37//23
f 38//27 39//43 40//40 41//25
f 42//30 43//47 44//43 45//27
f 46//32 47//49 48//47 49//30
f 50//34 51//56 52//49 53//32
f 54//36 55//53 56//75 57//34
f 58//20 59//53 60//36
f 61//1 62//42 63//58
f 64//41 65//64 66//58 67//39
f 68//44 69//62 70//60 71//41
f 72//48 73//65 74//62 75//44
f 76//50 77//67 78//65 79//48
f 80//55 81//73 82//67 83//50
f 84//57 85//71 86//69 87//55
f 88//20 89//71 90//54
f 91//1 92//59 93//2
f 94//61 95//76 96//2 97//59
f 98//63 99//7 100//4 101//61
f 102//66 103//10 104//7 105//63
f 106//68 107//12 108//10 109//66
f 110//70 111//19 112//12 113//68
f 114//72 115//16 116//77 117//70
f 118//20 119//16 120//72
